# xmcd
#
# Track frame offsets: 
#        150
#        12171
#        31241
#        53711
#        73958
#        86752
#        97032
#        120405
#
# Disc length: 1842 seconds
#
# Revision: 13
# Processed by: cddbd v1.5.2PL0 Copyright (c) Steve Scherf et al.
# Submitted via: ExactAudioCopy v1.3
#
DISCID=63073008
DTITLE=Led Zeppelin - Coda (Disc.2)
DYEAR=1982
DGENRE=Hard Rock
TTITLE0=We're Gonna Groove (alternate mix)
TTITLE1=If It Keeps On Raining ( When The Levee Breaks) (rough mix)
TTITLE2=Bonzo's Montreux (mix construction in progress)
TTITLE3=Baby Come On Home
TTITLE4=Sugar Mama (mix)
TTITLE5=Poor Tom (instrumental mix)
TTITLE6=Travelling Riverside Blues (BBC session)
TTITLE7=Hey, Hey, What Can I Do
EXTD=
EXTT0=
EXTT1=
EXTT2=
EXTT3=
EXTT4=
EXTT5=
EXTT6=
EXTT7=
PLAYORDER=
